<?xml version="1.0" encoding="UTF-8" standalone="no"?><!DOCTYPE svg PUBLIC "-//W3C//DTD SVG 1.1//EN" "http://www.w3.org/Graphics/SVG/1.1/DTD/svg11.dtd"><svg width="100%" height="100%" viewBox="0 0 1226 834" version="1.1" xmlns="http://www.w3.org/2000/svg" xmlns:xlink="http://www.w3.org/1999/xlink" xml:space="preserve" xmlns:serif="http://www.serif.com/" style="fill-rule:evenodd;clip-rule:evenodd;stroke-linejoin:round;stroke-miterlimit:2;"><g id="extra-2" serif:id="extra 2"><g id="screen"><path d="M370.59,647.433l-0,-156.406l180.594,-104.266l0.004,150.812l-0.198,5.589l-4.114,2.489l-176.286,101.782Zm40.786,-45.297c-0.153,0 -0.309,0.039 -0.452,0.122l-14.001,8.026c-0.431,0.25 -0.58,0.803 -0.33,1.234c0.168,0.29 0.471,0.453 0.784,0.453c0.153,-0 0.308,-0.04 0.451,-0.122l14.001,-8.027c0.432,-0.249 0.58,-0.802 0.33,-1.234c-0.167,-0.29 -0.471,-0.452 -0.783,-0.452Zm0,-5.422c-0.154,0 -0.309,0.039 -0.452,0.121l-21.835,12.605c-0.433,0.25 -0.58,0.803 -0.332,1.236c0.167,0.289 0.472,0.452 0.784,0.452c0.153,0 0.308,-0.039 0.451,-0.122l21.837,-12.606c0.432,-0.249 0.58,-0.802 0.33,-1.234c-0.167,-0.29 -0.471,-0.452 -0.783,-0.452Zm0,-5.423c-0.153,0 -0.309,0.039 -0.452,0.122l-21.835,12.605c-0.433,0.25 -0.58,0.803 -0.332,1.235c0.167,0.29 0.472,0.452 0.784,0.452c0.153,0 0.308,-0.039 0.451,-0.121l21.837,-12.606c0.432,-0.25 0.58,-0.803 0.33,-1.235c-0.167,-0.29 -0.471,-0.452 -0.783,-0.452Zm-0.001,-5.422c-0.153,0 -0.308,0.039 -0.451,0.121l-21.835,12.606c-0.433,0.249 -0.58,0.802 -0.332,1.235c0.167,0.29 0.472,0.452 0.784,0.452c0.153,0 0.308,-0.039 0.451,-0.121l21.837,-12.607c0.432,-0.249 0.58,-0.801 0.33,-1.234c-0.167,-0.29 -0.471,-0.452 -0.784,-0.452Zm0.001,-5.422c-0.154,0 -0.309,0.039 -0.452,0.121l-21.835,12.606c-0.433,0.249 -0.58,0.802 -0.332,1.234c0.167,0.29 0.472,0.453 0.784,0.453c0.153,-0 0.308,-0.039 0.451,-0.122l21.837,-12.606c0.432,-0.249 0.58,-0.802 0.33,-1.234c-0.167,-0.29 -0.471,-0.452 -0.783,-0.452Zm0.006,-14.348c-0.218,-0 -0.462,0.071 -0.72,0.22l-14.826,8.56c-0.89,0.513 -1.619,1.775 -1.619,2.803l0,6.691c0,0.729 0.368,1.153 0.9,1.153c0.217,0 0.461,-0.071 0.72,-0.22l14.825,-8.559c0.89,-0.514 1.619,-1.776 1.619,-2.803l0,-6.691c0,-0.73 -0.368,-1.154 -0.899,-1.154Zm32.192,-36.046c4.82,0 8.214,4.261 12.804,10.618c4.404,6.101 9.668,13.391 18.201,13.392c2.158,-0 4.525,-0.466 7.142,-1.536c13.178,-5.392 16.939,-25.27 20.576,-44.493c0.854,-4.518 1.718,-9.081 2.707,-13.358c1.009,0.352 2.106,0.533 3.272,0.533c2.443,0.001 5.192,-0.792 8.094,-2.468c4.255,-2.457 8.183,-6.431 11.294,-11.077c5.551,12.776 7.613,35.601 7.948,45.425c0.04,1.195 1.02,2.139 2.21,2.139c0.026,-0 0.052,-0.001 0.079,-0.002c1.223,-0.041 2.181,-1.066 2.139,-2.29c-0.139,-4.064 -1.443,-34.503 -9.698,-49.832c2.65,-5.186 4.251,-10.811 4.251,-15.923c0,-8.221 -4.139,-12.992 -10.129,-12.992c-2.443,-0 -5.191,0.793 -8.094,2.468c-10.022,5.785 -18.221,19.986 -18.221,31.559c-0,4.204 1.083,7.507 2.941,9.73c-1.165,4.789 -2.147,9.981 -3.147,15.263c-3.417,18.061 -6.95,36.736 -17.901,41.217c-2.01,0.822 -3.81,1.191 -5.449,1.191c-6.293,0.001 -10.219,-5.439 -14.623,-11.539c-4.111,-5.696 -8.968,-12.421 -16.449,-12.421c-2.639,0 -5.604,0.836 -8.98,2.85c-2.161,1.291 -4.12,1.93 -5.934,1.93c-0.67,0 -1.319,-0.087 -1.952,-0.26c-5.286,-1.448 -9.307,-8.834 -13.195,-15.978c-4.253,-7.813 -8.271,-15.194 -14.595,-16.835c-0.818,-0.212 -1.651,-0.318 -2.496,-0.318c-2.281,-0 -4.653,0.772 -7.082,2.31c-1.034,0.654 -1.342,2.023 -0.688,3.057c0.422,0.666 1.14,1.03 1.874,1.03c0.406,-0 0.816,-0.111 1.184,-0.344c1.715,-1.085 3.266,-1.624 4.702,-1.624c0.476,0 0.94,0.06 1.393,0.178c4.464,1.159 8.202,8.024 11.816,14.664c4.332,7.958 8.812,16.187 15.917,18.133c1.011,0.276 2.046,0.414 3.101,0.414c2.624,0 5.378,-0.852 8.225,-2.551c2.607,-1.555 4.803,-2.26 6.763,-2.26Z" style="fill:url(#_Linear1);"/><path d="M370.59,491.027l-0,-26.067l180.598,-104.269l-0.004,26.07l-180.594,104.266Z" style="fill:url(#_Linear2);"/><g><path d="M389.541,594.861c-0.312,-0 -0.617,-0.163 -0.784,-0.453c-0.248,-0.432 -0.101,-0.985 0.332,-1.234l21.835,-12.606c0.143,-0.082 0.298,-0.121 0.452,-0.121c0.312,0 0.616,0.162 0.783,0.452c0.25,0.432 0.102,0.985 -0.33,1.234l-21.837,12.606c-0.143,0.083 -0.298,0.122 -0.451,0.122Z" style="fill:url(#_Linear3);"/><path d="M389.541,600.283c-0.312,0 -0.617,-0.162 -0.784,-0.452c-0.248,-0.433 -0.101,-0.986 0.332,-1.235l21.835,-12.606c0.143,-0.082 0.298,-0.121 0.451,-0.121c0.313,0 0.617,0.162 0.784,0.452c0.25,0.433 0.102,0.985 -0.33,1.234l-21.837,12.607c-0.143,0.082 -0.298,0.121 -0.451,0.121Z" style="fill:url(#_Linear4);"/><path d="M389.541,605.705c-0.312,0 -0.617,-0.162 -0.784,-0.452c-0.248,-0.432 -0.101,-0.985 0.332,-1.235l21.835,-12.605c0.143,-0.083 0.299,-0.122 0.452,-0.122c0.312,0 0.616,0.162 0.783,0.452c0.25,0.432 0.102,0.985 -0.33,1.235l-21.837,12.606c-0.143,0.082 -0.298,0.121 -0.451,0.121Z" style="fill:url(#_Linear5);"/><path d="M389.541,611.128c-0.312,0 -0.617,-0.163 -0.784,-0.452c-0.248,-0.433 -0.101,-0.986 0.332,-1.236l21.835,-12.605c0.143,-0.082 0.298,-0.121 0.452,-0.121c0.312,0 0.616,0.162 0.783,0.452c0.25,0.432 0.102,0.985 -0.33,1.234l-21.837,12.606c-0.143,0.083 -0.298,0.122 -0.451,0.122Z" style="fill:url(#_Linear6);"/><path d="M397.377,611.971c-0.313,-0 -0.616,-0.163 -0.784,-0.453c-0.25,-0.431 -0.101,-0.984 0.33,-1.234l14.001,-8.026c0.143,-0.083 0.299,-0.122 0.452,-0.122c0.312,0 0.616,0.162 0.783,0.452c0.25,0.432 0.102,0.985 -0.33,1.234l-14.001,8.027c-0.143,0.082 -0.298,0.122 -0.451,0.122Z" style="fill:url(#_Linear7);"/><path d="M395.117,585.526c-0.532,0 -0.9,-0.424 -0.9,-1.153l0,-6.691c0,-1.028 0.729,-2.29 1.619,-2.803l14.826,-8.56c0.258,-0.149 0.502,-0.22 0.72,-0.22c0.531,-0 0.899,0.424 0.899,1.154l0,6.691c0,1.027 -0.729,2.289 -1.619,2.803l-14.825,8.559c-0.259,0.149 -0.503,0.22 -0.72,0.22Z" style="fill:url(#_Linear8);"/></g><path d="M474.579,554.063c-8.533,-0.001 -13.797,-7.291 -18.201,-13.392c-4.59,-6.357 -7.984,-10.618 -12.804,-10.618c-1.96,0 -4.156,0.705 -6.763,2.26c-2.847,1.699 -5.601,2.551 -8.225,2.551c-1.055,0 -2.09,-0.138 -3.101,-0.414c-7.105,-1.946 -11.585,-10.175 -15.917,-18.133c-3.614,-6.64 -7.352,-13.505 -11.816,-14.664c-0.453,-0.118 -0.917,-0.178 -1.393,-0.178c-1.436,0 -2.987,0.539 -4.702,1.624c-0.368,0.233 -0.778,0.344 -1.184,0.344c-0.734,-0 -1.452,-0.364 -1.874,-1.03c-0.654,-1.034 -0.346,-2.403 0.688,-3.057c2.429,-1.538 4.801,-2.31 7.082,-2.31c0.845,-0 1.678,0.106 2.496,0.318c6.324,1.641 10.342,9.022 14.595,16.835c3.888,7.144 7.909,14.53 13.195,15.978c0.633,0.173 1.282,0.26 1.952,0.26c1.814,0 3.773,-0.639 5.934,-1.93c3.376,-2.014 6.341,-2.85 8.98,-2.85c7.481,0 12.338,6.725 16.449,12.421c4.404,6.1 8.33,11.54 14.623,11.539c1.639,0 3.439,-0.369 5.449,-1.191c10.951,-4.481 14.484,-23.156 17.901,-41.217c1,-5.282 1.982,-10.474 3.147,-15.263c1.068,1.278 2.391,2.198 3.914,2.73c-0.989,4.277 -1.853,8.84 -2.707,13.358c-3.637,19.223 -7.398,39.101 -20.576,44.493c-2.617,1.07 -4.984,1.536 -7.142,1.536Zm63.243,-24.835c-1.19,-0 -2.17,-0.944 -2.21,-2.139c-0.335,-9.824 -2.397,-32.649 -7.948,-45.425c0.979,-1.463 1.876,-2.99 2.678,-4.56c8.255,15.329 9.559,45.768 9.698,49.832c0.042,1.224 -0.916,2.249 -2.139,2.29c-0.027,0.001 -0.053,0.002 -0.079,0.002Z" style="fill:url(#_Linear9);"/><path d="M508.276,495.209c-1.166,0 -2.263,-0.181 -3.272,-0.533c0.942,-4.077 1.998,-7.894 3.271,-11.168c0.945,0.879 2.165,1.346 3.566,1.346c1.367,0 2.904,-0.444 4.529,-1.382c2.953,-1.704 5.624,-4.714 7.49,-8.128c1.42,1.571 2.683,3.74 3.804,6.32c-3.111,4.646 -7.039,8.62 -11.294,11.077c-2.902,1.676 -5.651,2.469 -8.094,2.468Zm-7.186,-3.263c-1.858,-2.223 -2.941,-5.526 -2.941,-9.73c-0,-11.573 8.199,-25.774 18.221,-31.559c2.903,-1.675 5.651,-2.468 8.094,-2.468c5.99,-0 10.129,4.771 10.129,12.992c0,5.112 -1.601,10.737 -4.251,15.923c-1.347,-2.501 -2.88,-4.601 -4.622,-6.118c0.544,-1.751 0.846,-3.51 0.846,-5.172c-0,-4.6 -2.316,-7.269 -5.667,-7.269c-1.366,0 -2.904,0.443 -4.529,1.38c-5.565,3.212 -10.125,11.063 -10.195,17.512c-2.145,3.968 -3.737,8.968 -5.085,14.509Z" style="fill:#d0bbf7;"/><path d="M508.275,483.508c-1.273,3.274 -2.329,7.091 -3.271,11.168c-1.523,-0.532 -2.846,-1.452 -3.914,-2.73c1.348,-5.541 2.94,-10.541 5.085,-14.509c2.131,-3.943 4.808,-6.868 8.333,-8.296c1.457,-0.59 2.9,-0.883 4.304,-0.883c1.938,-0 3.8,0.559 5.515,1.673c0.478,0.311 0.943,0.664 1.393,1.055c1.742,1.517 3.275,3.617 4.622,6.118c-0.802,1.57 -1.699,3.097 -2.678,4.56c-1.121,-2.58 -2.384,-4.749 -3.804,-6.32c-0.618,-0.684 -1.267,-1.255 -1.946,-1.696c-0.997,-0.648 -2.013,-0.97 -3.097,-0.97c-0.835,0 -1.71,0.191 -2.645,0.571c-3.411,1.38 -5.916,5.16 -7.897,10.259Z" style="fill:#ac82f7;"/><path d="M511.841,484.854c-1.401,0 -2.621,-0.467 -3.566,-1.346c1.981,-5.099 4.486,-8.879 7.897,-10.259c0.935,-0.38 1.81,-0.571 2.645,-0.571c1.084,0 2.1,0.322 3.097,0.97c0.679,0.441 1.328,1.012 1.946,1.696c-1.866,3.414 -4.537,6.424 -7.49,8.128c-1.625,0.938 -3.162,1.382 -4.529,1.382Zm-5.666,-7.417c0.07,-6.449 4.63,-14.3 10.195,-17.512c1.625,-0.937 3.163,-1.38 4.529,-1.38c3.351,0 5.667,2.669 5.667,7.269c-0,1.662 -0.302,3.421 -0.846,5.172c-0.45,-0.391 -0.915,-0.744 -1.393,-1.055c-1.715,-1.114 -3.577,-1.673 -5.515,-1.673c-1.404,-0 -2.847,0.293 -4.304,0.883c-3.525,1.428 -6.202,4.353 -8.333,8.296Z" style="fill:#b594f1;"/><path d="M521.349,468.825c-0,-3.162 -2.24,-4.456 -4.979,-2.875c-2.737,1.58 -4.979,5.461 -4.979,8.623c-0,3.163 2.242,4.457 4.979,2.876c2.739,-1.581 4.979,-5.462 4.979,-8.624Z" style="fill:url(#_Linear10);"/></g></g><defs><linearGradient id="_Linear1" x1="0" y1="0" x2="1" y2="0" gradientUnits="userSpaceOnUse" gradientTransform="matrix(169,294.5,-294.5,169,377,310.5)"><stop offset="0" style="stop-color:#fce9e4;stop-opacity:1"/><stop offset="1" style="stop-color:#e5d9fb;stop-opacity:1"/></linearGradient><linearGradient id="_Linear2" x1="0" y1="0" x2="1" y2="0" gradientUnits="userSpaceOnUse" gradientTransform="matrix(2.66697,25.7809,-25.7809,2.66697,452.855,348.202)"><stop offset="0" style="stop-color:#fce9e4;stop-opacity:1"/><stop offset="1" style="stop-color:#e5d9fb;stop-opacity:1"/></linearGradient><linearGradient id="_Linear3" x1="0" y1="0" x2="1" y2="0" gradientUnits="userSpaceOnUse" gradientTransform="matrix(66.5,-35.705,35.705,66.5,372.5,605.705)"><stop offset="0" style="stop-color:#efdbe5;stop-opacity:1"/><stop offset="1" style="stop-color:#d0bbf7;stop-opacity:1"/></linearGradient><linearGradient id="_Linear4" x1="0" y1="0" x2="1" y2="0" gradientUnits="userSpaceOnUse" gradientTransform="matrix(66.5,-35.705,35.705,66.5,372.5,605.705)"><stop offset="0" style="stop-color:#efdbe5;stop-opacity:1"/><stop offset="1" style="stop-color:#d0bbf7;stop-opacity:1"/></linearGradient><linearGradient id="_Linear5" x1="0" y1="0" x2="1" y2="0" gradientUnits="userSpaceOnUse" gradientTransform="matrix(66.5,-35.705,35.705,66.5,372.5,605.705)"><stop offset="0" style="stop-color:#efdbe5;stop-opacity:1"/><stop offset="1" style="stop-color:#d0bbf7;stop-opacity:1"/></linearGradient><linearGradient id="_Linear6" x1="0" y1="0" x2="1" y2="0" gradientUnits="userSpaceOnUse" gradientTransform="matrix(66.5,-35.705,35.705,66.5,372.5,605.705)"><stop offset="0" style="stop-color:#efdbe5;stop-opacity:1"/><stop offset="1" style="stop-color:#d0bbf7;stop-opacity:1"/></linearGradient><linearGradient id="_Linear7" x1="0" y1="0" x2="1" y2="0" gradientUnits="userSpaceOnUse" gradientTransform="matrix(66.5,-35.705,35.705,66.5,372.5,605.705)"><stop offset="0" style="stop-color:#efdbe5;stop-opacity:1"/><stop offset="1" style="stop-color:#d0bbf7;stop-opacity:1"/></linearGradient><linearGradient id="_Linear8" x1="0" y1="0" x2="1" y2="0" gradientUnits="userSpaceOnUse" gradientTransform="matrix(66.5,-35.705,35.705,66.5,372.5,605.705)"><stop offset="0" style="stop-color:#efdbe5;stop-opacity:1"/><stop offset="1" style="stop-color:#d0bbf7;stop-opacity:1"/></linearGradient><linearGradient id="_Linear9" x1="0" y1="0" x2="1" y2="0" gradientUnits="userSpaceOnUse" gradientTransform="matrix(186.917,62.2257,-62.2257,186.917,388.256,501.5)"><stop offset="0" style="stop-color:#f2e1e8;stop-opacity:1"/><stop offset="1" style="stop-color:#d0bbf7;stop-opacity:1"/></linearGradient><linearGradient id="_Linear10" x1="0" y1="0" x2="1" y2="0" gradientUnits="userSpaceOnUse" gradientTransform="matrix(3.93505,-15.7403,-15.7403,-3.93505,514.401,463.821)"><stop offset="0" style="stop-color:#f8f8f9;stop-opacity:1"/><stop offset="1" style="stop-color:#ccd5ed;stop-opacity:1"/></linearGradient></defs></svg>