<?xml version="1.0" encoding="UTF-8" standalone="no"?><!DOCTYPE svg PUBLIC "-//W3C//DTD SVG 1.1//EN" "http://www.w3.org/Graphics/SVG/1.1/DTD/svg11.dtd"><svg width="100%" height="100%" viewBox="0 0 1226 834" version="1.1" xmlns="http://www.w3.org/2000/svg" xmlns:xlink="http://www.w3.org/1999/xlink" xml:space="preserve" xmlns:serif="http://www.serif.com/" style="fill-rule:evenodd;clip-rule:evenodd;stroke-linejoin:round;stroke-miterlimit:2;"><g id="extra-1" serif:id="extra 1"><g><path d="M927.119,66.863c0.786,0.454 1.565,0.94 2.346,1.424c7.764,-28.502 33.931,-37.827 64.793,-20.007c35.802,20.675 65.292,70.669 67.052,112.759c5.99,0.245 12.65,2.28 19.66,6.327c25.9,14.956 47.1,51.79 47.1,81.854c-0,0.796 -0.03,1.573 -0.06,2.344c13.49,13.488 23.19,34.149 23.19,51.713c-0,10.088 -3.2,17.482 -8.48,21.555c-1.15,0.883 -2.39,1.608 -3.72,2.171l-34.27,20.032l-5.69,-29.746l1.94,-2.402l-173.861,-100.915c-34.898,-20.252 -63.45,-69.88 -63.45,-110.285c0,-40.404 28.552,-56.975 63.45,-36.824Z" style="fill:url(#_Linear1);"/><path d="M891.697,87.423c0.786,0.455 1.566,0.94 2.346,1.424c7.764,-28.501 33.931,-37.827 64.793,-20.006c35.803,20.674 65.294,70.669 67.054,112.758c5.99,0.245 12.65,2.281 19.66,6.328c25.9,14.956 47.09,51.79 47.09,81.853c0,0.797 -0.02,1.574 -0.05,2.345c13.49,13.488 23.19,34.149 23.19,51.713c0,22.417 -15.8,31.588 -35.11,20.38l-188.973,-109.686c-34.897,-20.251 -63.45,-69.879 -63.45,-110.284c0,-40.405 28.553,-56.976 63.45,-36.825Z" style="fill:url(#_Linear2);"/></g></g><defs><linearGradient id="_Linear1" x1="0" y1="0" x2="1" y2="0" gradientUnits="userSpaceOnUse" gradientTransform="matrix(4.97145,-38.5286,-38.5286,-4.97145,980.071,-7.292)"><stop offset="0" style="stop-color:#f8f8f9;stop-opacity:1"/><stop offset="1" style="stop-color:#ccd5ed;stop-opacity:1"/></linearGradient><linearGradient id="_Linear2" x1="0" y1="0" x2="1" y2="0" gradientUnits="userSpaceOnUse" gradientTransform="matrix(-103.157,-142.928,-142.928,103.157,1030.39,138.729)"><stop offset="0" style="stop-color:#f8f8f9;stop-opacity:1"/><stop offset="1" style="stop-color:#ccd5ed;stop-opacity:1"/></linearGradient></defs></svg>