<?xml version="1.0" encoding="UTF-8" standalone="no"?><!DOCTYPE svg PUBLIC "-//W3C//DTD SVG 1.1//EN" "http://www.w3.org/Graphics/SVG/1.1/DTD/svg11.dtd"><svg width="100%" height="100%" viewBox="0 0 918 729" version="1.1" xmlns="http://www.w3.org/2000/svg" xmlns:xlink="http://www.w3.org/1999/xlink" xml:space="preserve" xmlns:serif="http://www.serif.com/" style="fill-rule:evenodd;clip-rule:evenodd;"><g><path d="M720.687,242.46c0.75,-24.07 17.18,-62.34 -4.2,-105" style="fill:none;fill-rule:nonzero;stroke:#f9a57a;stroke-width:7px;"/><path d="M655.197,62.28c-75.68,-49 -216.82,-72.06 -295.12,-11.6" style="fill:none;fill-rule:nonzero;stroke:#f9a57a;stroke-width:7px;"/><path d="M735.907,307.17c1.991,4.666 4.248,9.213 6.76,13.62c17.27,30.31 41.42,56.25 67.48,79.46c41.73,37.17 70,81.82 45.57,137.73c-24.72,56.63 -71.29,94.55 -117.86,132.63" style="fill:none;fill-rule:nonzero;stroke:#f9a57a;stroke-width:7px;"/><path d="M440.427,645.57c-0,0 12.43,-73.28 56.92,-64.12c44.49,9.16 56.27,58.88 56.27,58.88" style="fill:none;fill-rule:nonzero;stroke:#f9a57a;stroke-width:7px;"/><path d="M489.507,580.69c-0,0 -34.15,32 -32.14,70.38" style="fill:none;fill-rule:nonzero;stroke:#f9a57a;stroke-width:7px;"/><path d="M485.557,603.04c-0,0 -13.86,21.41 -12.16,48" style="fill:none;fill-rule:nonzero;stroke:#f9a57a;stroke-width:7px;"/><path d="M497.017,595.19c-0,0 18,25.51 17.33,50.38" style="fill:none;fill-rule:nonzero;stroke:#f9a57a;stroke-width:7px;"/><path d="M512.427,595.19c-0,0 14.65,11.12 24.66,43.83" style="fill:none;fill-rule:nonzero;stroke:#f9a57a;stroke-width:7px;"/><path d="M494.067,613.11c-1.77,15.456 -0.754,31.104 3,46.2" style="fill:none;fill-rule:nonzero;stroke:#f9a57a;stroke-width:7px;"/><path d="M483.717,713.41c3.31,-5.09 3.12,-14.68 7.46,-22.36c3.36,-5.94 8.93,-10.53 16.07,-8.58c7.45,2 10.56,8.05 11.91,15.16c0.85,4.49 3.75,12.16 8.62,15.78" style="fill:none;fill-rule:nonzero;stroke:#f9a57a;stroke-width:7px;"/><path d="M547.427,641.69c2,6.394 3.54,12.274 4.62,17.64c1.61,19.85 2.2,38.21 2,54.12" style="fill:none;fill-rule:nonzero;stroke:#f9a57a;stroke-width:7px;"/><path d="M451.427,713.41c-3.05,-19.84 -4.21,-40.85 -4.09,-49.53c0.061,-6.129 0.482,-12.25 1.26,-18.33" style="fill:none;fill-rule:nonzero;stroke:#f9a57a;stroke-width:7px;"/><path d="M447.327,663.87c-0,0 74,17.85 104.68,-4.56" style="fill:none;fill-rule:nonzero;stroke:#f9a57a;stroke-width:7px;"/><path d="M424.897,84.07c-0,0 29.18,-36.33 69.82,0c-0,0 10.42,-38.26 59.4,-32.75" style="fill:none;fill-rule:nonzero;stroke:#f9a57a;stroke-width:7px;"/><path d="M342.687,176.32c-0,0 21.88,-27.25 52.36,0c-0,0 7.82,-28.7 44.56,-24.57" style="fill:none;fill-rule:nonzero;stroke:#f9a57a;stroke-width:7px;"/><path d="M403.907,98.27c-3.582,-0.677 -7.225,-0.982 -10.87,-0.91c-40.084,-0.027 -73.1,32.916 -73.16,73" style="fill:none;fill-rule:nonzero;stroke:#ccdde2;stroke-width:7px;"/><path d="M365.587,238.94c-20.73,-23.81 -61.1,-34.43 -94.84,-38.68c-7.17,-0.88 -14,-1.51 -20.35,-1.89c-14.467,-1.01 -28.998,-0.618 -43.39,1.17c-14.392,1.789 -0,0 -0,0c-1.26,0.16 -2.52,0.34 -3.77,0.53c-0.41,0.07 -1,0.19 -1.73,0.38" style="fill:none;fill-rule:nonzero;stroke:#f9a57a;stroke-width:7px;"/><path d="M162.667,211.42c-9.653,-9.405 -15.677,-21.927 -17,-35.34c-0.15,-1.86 -0.28,-3.8 -0.28,-5.69c0.028,-28.943 21.92,-53.574 50.66,-57c2.197,-6.866 5.04,-13.509 8.49,-19.84c19.604,-36.004 57.456,-58.493 98.451,-58.493c42.891,0 82.174,24.616 100.879,63.213c35.603,5.227 62.25,36.116 62.2,72.1l-0,0.72c0.012,0.515 -0.012,1.029 -0.07,1.54c0.03,0.156 0.03,0.315 -0,0.47l-0,0.32" style="fill:none;fill-rule:nonzero;stroke:#f9a57a;stroke-width:7px;"/><path d="M403.907,98.27c-3.582,-0.677 -7.225,-0.982 -10.87,-0.91c-40.084,-0.027 -73.1,32.916 -73.16,73" style="fill:none;fill-rule:nonzero;stroke:#f9a57a;stroke-width:7px;"/><path d="M230.147,414.4l-13.95,62.06" style="fill:none;fill-rule:nonzero;stroke:#f9a57a;stroke-width:7px;"/><path d="M280.907,459.84c-3.827,-1.576 -7.442,-3.625 -10.76,-6.1c-8.58,-6.38 -15.19,-15 -21.1,-23.9c-5,-7.55 -10.44,-16.54 -18.9,-15.44c-1.85,0.265 -3.633,0.883 -5.25,1.82c-7.58,4.22 -11.92,12.39 -18.68,17.55c-28.8,21.79 -62,-8.93 -77.38,-32.7c-15,-23.21 -51,-17.83 -74.09,-15c-12.23,1.54 -23.32,1.76 -32.42,-8.08c-8,-8.68 -10.28,-21.73 -5.18,-32.2c26.09,-53.68 79.71,-109 145.52,-134.37c12.564,-4.872 25.558,-8.555 38.81,-11c1.82,-0.35 3.64,-0.63 5.5,-0.91c21.137,-3.325 42.683,-3.082 63.74,0.72" style="fill:none;fill-rule:nonzero;stroke:#f9a57a;stroke-width:7px;"/><path d="M697.427,713.4c-18.23,-5.25 -101.72,-19.89 -143.7,-25.68" style="fill:none;fill-rule:nonzero;stroke:#f9a57a;stroke-width:7px;"/><path d="M447.587,674.42c-20.43,-2.36 -33.7,-3.81 -33.7,-3.81c-84.65,-12.79 -73.46,-67.57 -73.46,-67.57c-0,0 -21.22,7.86 -27.89,29.84c-8.58,28.36 -47.76,45.12 -75.5,34.68c-15.53,-5.81 -29.87,-16.63 -38.11,-35.87c-3.8,-8.94 -5.53,-19.44 -5.69,-31c-0.19,-12 1.35,-25.06 3.93,-38.33" style="fill:none;fill-rule:nonzero;stroke:#f9a57a;stroke-width:7px;"/><path d="M145.087,713.41c-11.94,-33.24 -19.24,-69.49 -13.45,-104.81c4,-24.52 16,-44 28.49,-63.67" style="fill:none;fill-rule:nonzero;stroke:#f9a57a;stroke-width:7px;"/><path d="M197.437,557.95l-29.53,156.03" style="fill:none;fill-rule:nonzero;stroke:#f9a57a;stroke-width:7px;"/><path d="M397.867,286.17l-2.93,2.93l-2.42,2.36c0.73,-0.82 1.42,-1.64 2.14,-2.43c0.72,-0.79 1.2,-1.35 1.79,-2c0.408,-0.382 0.892,-0.675 1.42,-0.86Z" style="fill:none;fill-rule:nonzero;stroke:#000;stroke-width:7px;stroke-linejoin:round;stroke-miterlimit:2;"/><path d="M836.947,202.78c-0.31,-0.35 -0.58,-0.66 -0.88,-1c-7.21,-7.93 -4.22,-17.63 2.59,-25.07c5.25,-5.77 14,-11.68 22.14,-11.65c8,0 16.74,6.91 21.51,12.81c8.16,10.09 11.44,23 3.18,34c-9.318,12.331 -19.966,23.599 -31.75,33.6c-57.41,49.42 -125.31,75.32 -200.94,65.15c-7.42,-1 -17.48,-4.57 -24.57,-7" style="fill:none;fill-rule:nonzero;stroke:#000;stroke-width:7px;stroke-linejoin:round;stroke-miterlimit:2;"/><path d="M853.737,181.34c-7.4,2.81 -16.18,9.82 -16.93,18.38c-0.59,6.73 6.29,11.65 11.62,6.47" style="fill:none;fill-rule:nonzero;stroke:#000;stroke-width:7px;stroke-linejoin:round;stroke-miterlimit:2;"/><path d="M787.757,713.4l-650.12,0" style="fill:none;fill-rule:nonzero;stroke:#000;stroke-width:7px;stroke-linejoin:round;stroke-miterlimit:2;"/><path d="M674.877,680.12l90.35,0.84c4.48,0 27.57,14.08 21.53,23.24c-5.07,7.68 -0,9.2 -0,9.2l-89.33,0l-22.55,-33.28Z" style="fill:#a85575;fill-rule:nonzero;"/><path d="M102.867,437.12l-47,61.06c-0,0 -19.06,5 -26.33,-0.63l-7.26,-5.64l54.79,-70.6l25.8,15.81Z" style="fill:#a85575;fill-rule:nonzero;"/><path d="M423.667,484.69l-11.24,13.59c-151.27,172.34 -346.87,-17 -346.87,-17l8.87,-12.07" style="fill:none;fill-rule:nonzero;stroke:#000;stroke-width:7px;stroke-linejoin:round;stroke-miterlimit:2;"/><path d="M450.067,381.88c-0,0 53.47,11.65 118.22,39.88c-0,0 1.66,0.64 4.61,2" style="fill:none;fill-rule:nonzero;stroke:#000;stroke-width:7px;stroke-linejoin:round;stroke-miterlimit:2;"/><path d="M670.637,513.39c-0,0.08 0.08,0.12 0.12,0.19c5.83,11.56 11.71,23.94 17.34,36.47c0.08,0.16 0.12,0.32 0.2,0.48c2.6,5.75 5.16,11.55 7.65,17.3c21.88,50.59 46.68,115.35 46.68,115.35" style="fill:none;fill-rule:nonzero;stroke:#000;stroke-width:7px;stroke-linejoin:round;stroke-miterlimit:2;"/><path d="M670.797,513.62c-0.069,-0.065 -0.123,-0.143 -0.16,-0.23c-33.71,-57.05 -82.64,-82.76 -97.74,-89.65c-3,-1.34 -4.61,-2 -4.61,-2" style="fill:none;fill-rule:nonzero;stroke:#000;stroke-width:7px;stroke-linejoin:round;stroke-miterlimit:2;"/><path d="M353.537,347.01c-0,0 -59.61,93 75.7,139.69c143.82,49.55 144.89,33.39 199.57,120.48c34,54.17 47.31,75 52.43,82.83l3.24,4.89l12.95,18.5l89.37,0l-0,-9.2c-0,-11.52 -9.48,-21 -21,-21l-36,0" style="fill:none;fill-rule:nonzero;stroke:#000;stroke-width:7px;stroke-linejoin:round;stroke-miterlimit:2;"/><path d="M99.617,434.95l-21.19,-15.86l-55.2,73.53l8.91,6.69c2.8,2.1 6.207,3.236 9.708,3.236c5.164,0 10.029,-2.473 13.072,-6.646l10.68,-14.63" style="fill:none;fill-rule:nonzero;stroke:#000;stroke-width:7px;stroke-linejoin:round;stroke-miterlimit:2;"/><path d="M627.797,218.58c30.92,24.42 72.74,27.74 110.4,21.86c32.51,-5.07 72.87,-16.95 82,-53.14l6.62,-29.61c1.719,-4.061 5.72,-6.712 10.13,-6.712c6.034,-0 11,4.965 11,11c0,0.014 0,0.028 -0,0.042c-0.009,1.279 -0.236,2.547 -0.67,3.75l-1.42,3.9" style="fill:none;fill-rule:nonzero;stroke:#000;stroke-width:7px;stroke-linejoin:round;stroke-miterlimit:2;"/><path d="M627.797,218.58l25.83,-30.89" style="fill:none;fill-rule:nonzero;stroke:#000;stroke-width:7px;stroke-linejoin:round;stroke-miterlimit:2;"/><path d="M486.887,391.69c-0.16,0 -0.28,-0.09 -0.44,-0.13l-15.19,-4.08c-52.92,-14.25 -56.88,-14.56 -110.4,-26.51c-4.88,-1.1 -9.22,-2.27 -13,-3.46c-39.9,-12.67 -25.31,-30.75 -19.9,-30.75c38.52,0 45.5,-12.49 45.5,-12.49l0.66,0.47l112.77,76.95Z" style="fill:none;fill-rule:nonzero;stroke:#000;stroke-width:7px;stroke-linejoin:round;stroke-miterlimit:2;"/><path d="M99.607,434.97c-0,0 167.42,116.13 231,-40.16c5.413,-13.333 11.147,-25.743 17.2,-37.23" style="fill:none;fill-rule:nonzero;stroke:#000;stroke-width:7px;stroke-linejoin:round;stroke-miterlimit:2;"/><path d="M417.747,265.88c-12.388,11.267 -23.895,23.466 -34.42,36.49c-7.23,8.75 -14.38,16.23 -25.43,20c-5.253,1.719 -10.679,2.852 -16.18,3.38c-5.66,0.61 -14.07,-0.34 -18.34,4.2c-1.91,2.052 -2.819,4.847 -2.48,7.63c0.42,2.465 1.518,4.764 3.17,6.64c8.49,10.44 24.34,14 36.79,16.73c58.37,13 57.78,12.25 126,30.74" style="fill:none;fill-rule:nonzero;stroke:#000;stroke-width:7px;stroke-linejoin:round;stroke-miterlimit:2;"/><path d="M394.937,289.1l-2.42,2.36c0.73,-0.82 1.42,-1.64 2.14,-2.43l0.28,0.07Z" style="fill:none;fill-rule:nonzero;stroke:#000;stroke-width:7px;stroke-linejoin:round;stroke-miterlimit:2;"/><path d="M319.187,333.25c-0,0 -5.87,22 22.59,36.29l7.06,-14c-0,0 -35.41,-10.85 -29.65,-22.29Z" style="fill:none;fill-rule:nonzero;stroke:#000;stroke-width:7px;stroke-linejoin:round;stroke-miterlimit:2;"/><path d="M93.827,545.94c-0,0 54.87,61.32 172.74,61.32" style="fill:none;fill-rule:nonzero;stroke:#000;stroke-width:7px;stroke-linejoin:round;stroke-miterlimit:2;"/><path d="M601.027,598.28l27.2,41.99" style="fill:none;fill-rule:nonzero;stroke:#000;stroke-width:7px;stroke-linejoin:round;stroke-miterlimit:2;"/><path d="M894.637,229.81c10.15,-10.14 18.61,-22.88 19.79,-39.4" style="fill:none;fill-rule:nonzero;stroke:#000;stroke-width:7px;stroke-linejoin:round;stroke-miterlimit:2;"/><path d="M744.117,545.01c-72,27.36 -169.87,-8.84 -169.87,-8.84c-314.38,-101.63 -402.3,-194.26 -426.54,-241.84c-0.16,-0.28 -0.32,-0.57 -0.45,-0.82c-1.414,-2.812 -2.151,-5.917 -2.151,-9.065c0,-7.99 4.746,-15.26 12.061,-18.475c48.42,-21.39 174.9,-37.67 483.72,85.06c-0,0 86.6,30.31 128.73,89.24c0.038,0.036 0.071,0.077 0.1,0.12c2.765,3.87 5.334,7.875 7.7,12c5.577,9.773 8.511,20.832 8.511,32.084c-0,26.847 -16.703,51.03 -41.811,60.536Z" style="fill:none;fill-rule:nonzero;stroke:#000;stroke-width:7px;stroke-linejoin:round;stroke-miterlimit:2;"/><path d="M371.907,459.29c-154.68,-70.44 -207.07,-130.68 -224.65,-165.78c-1.414,-2.812 -2.151,-5.917 -2.151,-9.065c0,-7.99 4.746,-15.26 12.061,-18.475c29.31,-12.93 87.16,-24 196.75,-3.56" style="fill:#fff;fill-rule:nonzero;stroke:#000;stroke-width:7px;stroke-linejoin:round;stroke-miterlimit:2;"/><path d="M430.937,509.4c1.55,0 3,0 4.49,-0.07c0.019,0.008 0.041,0.008 0.06,0" style="fill:none;fill-rule:nonzero;stroke:#000;stroke-width:7px;stroke-linejoin:round;stroke-miterlimit:2;"/><path d="M504.127,396.59c8.2,-4.69 38.34,-21.7 46.46,-26.43c29.73,-17.23 61.19,-36 77.67,-66.51c11.23,-20.8 13.22,-46.22 6.8,-68.85c-1.75,-6.17 -3.5,-11 -7.26,-16.22" style="fill:none;fill-rule:nonzero;stroke:#000;stroke-width:7px;stroke-linejoin:round;stroke-miterlimit:2;"/><path d="M438.427,282c56.79,15.44 123.71,37.71 202.51,69c-0,0 98.51,34.49 136.53,101.41c5.562,9.763 8.487,20.807 8.487,32.043c0,26.838 -16.691,51.015 -41.787,60.527c-72,27.36 -169.87,-8.84 -169.87,-8.84c-42.92,-13.86 -81.6,-27.57 -116.47,-41" style="fill:#fff;fill-rule:nonzero;stroke:#000;stroke-width:7px;stroke-linejoin:round;stroke-miterlimit:2;"/><g><path d="M744.117,545.01c-72,27.36 -169.87,-8.84 -169.87,-8.84c-314.38,-101.63 -402.3,-194.26 -426.54,-241.84c0.392,-7.503 4.966,-14.182 11.82,-17.26c48.2,-21.86 174.52,-39.34 484.5,80.43c-0,0 81.66,27.71 125.59,82.77c0.038,0.036 0.071,0.077 0.1,0.12c2.765,3.87 5.334,7.875 7.7,12c5.577,9.773 8.511,20.832 8.511,32.084c-0,26.847 -16.703,51.03 -41.811,60.536Z" style="fill:#a85575;fill-rule:nonzero;"/><path d="M615.997,478.77c-38.72,14.72 -91.41,-4.76 -91.41,-4.76c-53,-17.14 -106.18,-36.85 -154.69,-64.64c-24.36,-13.95 -60.89,-34.52 -73,-61.43c-1.45,-3.22 -1.65,-7.25 0.42,-10.12c1.59,-2.19 4.21,-3.37 6.74,-4.35c37,-14.37 78.68,-7 116.32,0.69c48.89,10 94.72,27.74 141.8,43.71c-0,0 43.94,14.91 67.63,44.61c1.494,2.087 2.88,4.25 4.15,6.48c10.33,18.25 1.58,42.38 -17.96,49.81Z" style="fill:#ec9079;fill-rule:nonzero;"/></g><path d="M468.727,476.69c-8.68,-2.29 -13.83,-17.51 -15.68,-21.48c-0.207,-0.426 -0.469,-0.822 -0.78,-1.18l-5.61,-8.63l-1.87,10.11c0.52,5.32 7.93,19 11.84,33.09c3.91,14.09 -4.25,14.36 -8.84,14.52c-4.59,0.16 -6.34,-9 -7.39,0c-1.05,9 -11,5.84 -16.88,2.79c-5.88,-3.05 -5.86,-10.56 -6.18,-4.78c-0.32,5.78 -6.23,8.19 -10.47,7c-3.22,-0.88 -7.94,-7.14 -10,-10.09c-1.73,3.17 -6.05,8.78 -12.86,2.84c-9,-7.89 -10.54,-38 -9.39,-68c1.15,-30 -33.19,-96.43 -23.36,-151.85c-0,-0.08 -0,-0.21 0.07,-0.3c0.91,-4.14 2,-8.24 3.33,-12.31c2.522,-7.746 5.794,-15.229 9.77,-22.34c2.331,-4.194 4.881,-8.263 7.637,-12.189c0.326,-0.464 17.661,-26.075 46.482,-42.306c27.812,-15.663 67.146,-21.965 67.471,-22.405c-0,0 34.416,16.117 41.639,28.702c7.224,12.585 1.701,46.808 1.701,46.808c0.271,11.406 -66.193,24.051 -79.459,30.516c-1.539,0.749 -3.831,0.66 -4.331,0.974c-26.84,16.35 -20.74,48.64 -12.74,74.51c8.09,26.33 18.54,53.15 32.74,76.86c4.164,6.944 7.814,14.183 10.92,21.66l-1.27,0.25c0.451,2.678 1.062,5.326 1.83,7.93c3.16,10.03 0.38,21.56 -8.32,19.3Z" style="fill:#fff;fill-rule:nonzero;"/><path d="M628.227,303.69c-6.628,12.275 -15.682,22.649 -26.073,31.788l-161.723,-53.988c-0,0 7.606,-15.7 23.336,-12.36c7.61,-3.71 17.71,-4.38 25.91,-6.14c10.33,-2.22 22.91,-2.73 29.77,-12c7.58,-10.23 9.92,-25.07 7.75,-37.37c-2.48,-14 -11.63,-29.83 -25.58,-34.64c-12.25,-4.22 -25.54,-5 -38.38,-5.69c30.79,-1.17 65.18,-13.45 94.14,-5.81c0.096,0.006 0.19,0.026 0.28,0.06l4.75,1.32c1.473,0.41 3.01,0.539 4.53,0.38c1,9.09 7.2,38.61 28.71,51.73c14.33,8.71 26.32,5.31 33.42,-0.51c2.93,4.53 4.47,8.9 6,14.34c6.36,22.63 4.42,48.04 -6.84,68.89Z" style="fill:#3a1c71;fill-rule:nonzero;"/><path d="M566.797,169.81c-0,0.12 -0.06,0.22 -0.06,0.22c-0.44,1.41 3.62,36.82 27.23,51.22c15.22,9.28 27.58,4 33.8,-2.64l0.07,0c0.665,-0.734 1.293,-1.502 1.88,-2.3l-0,-0.09" style="fill:none;fill-rule:nonzero;stroke:#000;stroke-width:7px;stroke-linejoin:round;stroke-miterlimit:2;"/><path d="M438.427,282c56.79,15.44 123.71,37.71 202.51,69c-0,0 98.51,34.49 136.53,101.41c5.562,9.763 8.487,20.807 8.487,32.043c0,26.838 -16.691,51.015 -41.787,60.527c-72,27.36 -169.87,-8.84 -169.87,-8.84c-42.92,-13.86 -81.6,-27.57 -116.47,-41" style="fill:none;fill-rule:nonzero;stroke:#000;stroke-width:7px;stroke-linejoin:round;stroke-miterlimit:2;"/><path d="M371.907,459.29c-154.68,-70.44 -207.07,-130.68 -224.65,-165.78c-1.414,-2.812 -2.151,-5.917 -2.151,-9.065c0,-7.99 4.746,-15.26 12.061,-18.475c29.31,-12.93 87.16,-24 196.75,-3.56" style="fill:none;fill-rule:nonzero;stroke:#000;stroke-width:7px;stroke-linejoin:round;stroke-miterlimit:2;"/><path d="M436.597,493.98l-0.03,-0.01" style="fill:none;fill-rule:nonzero;stroke:#000;stroke-width:7px;stroke-linejoin:round;stroke-miterlimit:2;"/><path d="M393.837,492.71l-0.03,-0.01" style="fill:none;fill-rule:nonzero;stroke:#000;stroke-width:7px;stroke-linejoin:round;stroke-miterlimit:2;"/><path d="M421.877,442.33c-2.1,15.85 5.11,36.09 14.68,51.59c2.78,4.5 10,11.23 15.8,9c12.54,-4.79 -0.18,-23.51 -3.14,-30.34c-3.6,-8.29 -5.74,-17.34 -4.69,-26.41c0.017,-0.572 0.229,-1.123 0.6,-1.56c0.589,-0.448 1.411,-0.448 2,0c0.56,0.442 1.012,1.007 1.32,1.65c3.78,6.67 6.83,13.64 9.94,20.64c2.21,5 9.63,12.63 15.62,9.17c13,-7.53 -6,-41 -11,-49.34c-14.16,-23.7 -24.64,-50.53 -32.73,-76.86c-8,-25.9 -10.09,-58.31 16.75,-74.63c14,-8.52 30.74,-8.75 46.46,-11.35c25.32,-4.19 35.87,-21.43 35.87,-21.43" style="fill:none;fill-rule:nonzero;stroke:#000;stroke-width:7px;stroke-linejoin:round;stroke-miterlimit:2;"/><path d="M404.347,453.45c-0,0 0.85,35.67 21.49,53.39c2.446,2.193 5.757,3.165 9,2.64c3.51,-0.69 7,-3.21 4.94,-11.06" style="fill:none;fill-rule:nonzero;stroke:#000;stroke-width:7px;stroke-linejoin:round;stroke-miterlimit:2;"/><path d="M386.357,455.89c0.54,13.31 2.31,27.62 8.8,39.47c3,5.4 7.08,11.14 13.08,13.36c7.19,2.67 10.17,-4.48 8.79,-10.46c-0.28,-1.289 -0.72,-2.539 -1.31,-3.72" style="fill:none;fill-rule:nonzero;stroke:#000;stroke-width:7px;stroke-linejoin:round;stroke-miterlimit:2;"/><path d="M571.427,166.78l-4.61,3c-39.4,-5.5 -155.49,-13.3 -205,75.43c-6.094,10.947 -10.513,22.744 -13.11,35c-0.015,0.032 -0.015,0.069 -0,0.1c-0.007,0.02 -0.007,0.041 -0,0.06c-9.72,55.4 24.56,121.78 23.39,151.66c-1.17,29.88 0.35,60.09 9.41,68c9.06,7.91 13.71,-4.68 13.71,-4.68c-0,0 -4.69,12.61 -13.71,4.68c-9.02,-7.93 -10.57,-38.05 -9.41,-68c1.16,-29.95 -33.11,-96.26 -23.39,-151.66c-0.007,-0.019 -0.007,-0.04 -0,-0.06c0.005,-0.148 0.025,-0.295 0.06,-0.44" style="fill:none;fill-rule:nonzero;stroke:#000;stroke-width:7px;stroke-linejoin:round;stroke-miterlimit:2;"/><path d="M732.367,124.69c-0.53,1.986 -1.414,3.859 -2.61,5.53c-5.28,3 -12.88,8.48 -18.57,6.56c-8.49,-2.86 -8.49,-2.86 -12.72,-4.23c-2.11,-0.16 -3.49,1.54 -6.67,7.33c-0.551,1.011 -1.179,1.977 -1.88,2.89c-4.75,2.48 -10.53,7.42 -15.22,6.13c-5.85,-1.57 -9.4,-5.88 -12.29,-1.41c-2.9,1.16 -5.1,3.77 -6.77,7.83c-0.943,2.195 -2.236,4.222 -3.83,6c-1.375,0.966 -2.838,1.8 -4.37,2.49c-3.46,1.47 -7.8,-3.49 -12.71,-8.53c-4.91,-5.04 -10.44,-2.42 -12,1.8c-5.27,1.08 -7.81,10.12 -9.92,14.36c-2.11,4.24 -4.67,8.66 -8.43,11.73c-5.267,4.131 -12.579,4.578 -18.31,1.12c-6.61,-3.89 -9.7,-12.07 -9.78,-19.45c-0.07,-7.2 4,-14 3.13,-21.08c-0.55,-4.35 -2.52,-8.42 -4.76,-12.13c-1.56,-2.59 -3.3,-5 -4.38,-7.81c-0.21,-0.459 -0.296,-0.966 -0.25,-1.47c0.22,-1.28 2.75,-1.56 3.74,-1.81c11.48,-2.93 21.54,6.25 28.84,7c7.3,0.75 61.09,-7.36 61.09,-7.36c-0,0 43.08,-8.74 51.45,-11c8.37,-2.26 20.46,3.51 17.22,15.51Z" style="fill:#a85575;fill-rule:nonzero;"/><path d="M635.017,124.32l-29.59,1.85c-0.28,-10.94 2.08,-27.76 15.38,-45.31c8.247,-10.873 20.814,-17.655 34.43,-18.58c10.893,0.658 21.169,5.318 28.84,13.08c7.885,7.874 14.123,17.24 18.35,27.55c1.7,-0.82 3.49,-1.61 5.29,-2.33c5.296,-2.053 10.701,-3.816 16.19,-5.28c6.2,-1.8 13.36,-4 19.94,-3.12c0.212,0.004 0.423,0.027 0.63,0.07c12.16,1.98 -16.7,20.65 -109.46,32.07Z" style="fill:#3a1c71;fill-rule:nonzero;"/><path d="M719.727,107.86c3.66,1.65 8.25,2.7 10.83,6c5.36,6.91 0.77,17 -5.8,21.23c-9.39,6.06 -20.57,-1.29 -30,-3.41c2.145,10.496 7.166,20.192 14.5,28c7.334,7.809 -6.16,3 -11.23,5.29c-2.8,1.29 -5.09,5.63 -6.6,9.21c-2.052,5.1 -5.467,9.539 -9.87,12.83c-23.12,16.6 -43.27,-13.11 -43.27,-13.11" style="fill:none;fill-rule:nonzero;stroke:#000;stroke-width:7px;stroke-linejoin:round;stroke-miterlimit:2;"/><path d="M635.137,124.29c-0.039,0.014 -0.081,0.014 -0.12,0c-9.22,1.32 -18.43,2.39 -27.71,3.21c-1.993,0.291 -4.021,0.247 -6,-0.13c-0.771,-0.19 -1.519,-0.465 -2.23,-0.82c-1,-0.44 -2,-1 -3,-1.47c-6.902,-3.515 -14.634,-5.081 -22.36,-4.53c-2.375,0.075 -4.665,0.901 -6.54,2.36c-3,2.57 -2.29,5.53 -1,8c2.77,5.54 8.15,9.94 8.93,16.07c0.63,4.72 -1.63,9.25 -2.76,13.87c-1.42,5.934 -0.984,12.163 1.25,17.84c2.83,7.1 9.56,13.42 17.2,12.86c4.88,-0.38 9.15,-3.43 12.65,-6.89c4.391,-4.393 7.928,-9.564 10.43,-15.25c1.17,-2.67 2.11,-5.5 3.84,-7.86c1.73,-2.36 4.47,-4.21 7.36,-4c5.82,0.44 8.33,8.17 13.83,10c4.6,1.54 9.5,-1.64 12.46,-5.51c2.96,-3.87 4.78,-8.52 8.2,-11.95c5.29,-5.37 9.12,-3.17 15.13,-1.16c8.74,2.92 19.84,-9 20.09,-17.23" style="fill:none;fill-rule:nonzero;stroke:#000;stroke-width:7px;stroke-linejoin:round;stroke-miterlimit:2;"/><path d="M599.107,126.58c-0.35,-10.94 1.91,-27.95 15.37,-45.72c16.89,-22.26 49.89,-25.34 69.55,-5.51c7.902,7.874 14.158,17.243 18.4,27.56c6.73,-3.26 14.3,-5.56 21.48,-7.62c6.39,-1.84 13.84,-4.11 20.56,-3c12.18,2 -16.67,20.65 -109.44,32.05" style="fill:none;fill-rule:nonzero;stroke:#000;stroke-width:7px;stroke-linejoin:round;stroke-miterlimit:2;"/></g></svg>