<?xml version="1.0" encoding="UTF-8" standalone="no"?><!DOCTYPE svg PUBLIC "-//W3C//DTD SVG 1.1//EN" "http://www.w3.org/Graphics/SVG/1.1/DTD/svg11.dtd"><svg width="100%" height="100%" viewBox="0 0 4503 429" version="1.1" xmlns="http://www.w3.org/2000/svg" xmlns:xlink="http://www.w3.org/1999/xlink" xml:space="preserve" xmlns:serif="http://www.serif.com/" style="fill-rule:evenodd;clip-rule:evenodd;stroke-linejoin:round;stroke-miterlimit:2;"><g><path d="M0,0c283.526,2.899 462.227,84.962 912.219,187.225c299.995,68.175 786.547,91.946 1459.66,71.314c-905.2,229.756 -1695.83,221.673 -2371.88,-24.248" style="fill:#fff;fill-opacity:0.1;fill-rule:nonzero;"/><path d="M317.322,327.214c554.417,-101.481 1019.21,-163.074 1394.39,-184.781c375.174,-21.706 826.004,-11.815 1352.49,29.674c-149.781,3.276 -527.177,61.785 -1132.19,175.528c-605.01,113.743 -1143.24,106.936 -1614.69,-20.421Z" style="fill:#fff;fill-opacity:0.1;fill-rule:nonzero;"/><path d="M3273.57,161.413c265.095,-69.76 728.982,-106.388 1228.72,-35.895l-0,249.482c-524.462,-131.426 -934.434,-202.622 -1228.72,-213.587Z" style="fill:#fff;fill-opacity:0.2;fill-rule:nonzero;"/><path d="M0,206.359c176.966,59.885 305.472,99.294 385.516,118.219c180.1,42.594 345.228,57.578 463.159,67.481c122.881,10.313 389.381,7.319 590.6,-5.612c80.422,-5.166 180.319,-16.534 299.691,-34.097c121.315,-19.238 204.518,-33.575 249.603,-43.003c84.731,-17.71 236.568,-54.65 283.768,-65.197c165.204,-36.909 285.107,-73.738 402.247,-94.45c207.391,-36.672 310.475,-41.819 483.941,-48.35c154.75,3.266 269.391,8.428 343.909,15.484c126.46,11.975 273.078,38.857 356.763,52.866c157.672,26.387 372.675,78.525 643.097,156.406l-0,102.019l-4502.29,-0l-0,-221.766Z" style="fill:#fff;fill-rule:nonzero;"/></g></svg>